<svg xmlns="http://www.w3.org/2000/svg" xmlns:xlink="http://www.w3.org/1999/xlink" viewBox="0,0,256,256" width="24px" height="24px"><g fill="#da9dff" fill-rule="nonzero" stroke="none" stroke-width="1" stroke-linecap="butt" stroke-linejoin="miter" stroke-miterlimit="10" stroke-dasharray="" stroke-dashoffset="0" font-family="none" font-weight="none" font-size="none" text-anchor="none" style="mix-blend-mode: normal"><g transform="scale(10.66667,10.66667)"><path d="M1.5,0c-0.828,0 -1.5,0.672 -1.5,1.5c0,0.828 0.672,1.5 1.5,1.5c0.176,0 0.343,-0.0358 0.5,-0.0918v5.63086l1.35938,0.89063c-0.05,0.05 -0.09867,0.10039 -0.13867,0.15039c-1.43,1.53 -2.2207,3.45992 -2.2207,5.41992c0,3.79 2.86969,7.02984 6.92969,8.33984c0.18,0.06 0.35125,0.11992 0.53125,0.16992c0.35,0.1 0.69836,0.18977 1.06836,0.25977c0.43,0.08 0.87984,0.13969 1.33984,0.17969c0.01,0 0.03078,0.01 0.05078,0c0.1,0.02 0.20078,0.02148 0.30078,0.02148c0.25,0.02 0.5193,0.0293 0.7793,0.0293c0.26,0 0.5293,-0.0093 0.7793,-0.0293c0.1,0 0.20078,-0.00148 0.30078,-0.02148c0.02,0.01 0.04078,0 0.05078,0c0.46,-0.04 0.90984,-0.09969 1.33984,-0.17969c0.37,-0.07 0.71836,-0.15977 1.06836,-0.25977c0.18,-0.05 0.35125,-0.10992 0.53125,-0.16992c4.06,-1.31 6.92969,-4.54984 6.92969,-8.33984c0,-2.04 -0.81938,-3.98055 -2.35937,-5.56055l1.35938,-0.90039v-5.63086c0.157,0.056 0.324,0.0918 0.5,0.0918c0.828,0 1.5,-0.672 1.5,-1.5c0,-0.828 -0.672,-1.5 -1.5,-1.5c-0.828,0 -1.5,0.672 -1.5,1.5c0,0.136 0.02459,0.26563 0.05859,0.39063l-5.95898,2.42969l-0.06055,2.0293c-1.9,-0.45 -4.05,-0.45953 -6,-0.01953l-0.05859,-2.00977l-6.04102,-2.41992c0.036,-0.129 0.06055,-0.26139 0.06055,-0.40039c0,-0.828 -0.672,-1.5 -1.5,-1.5zM4,4.48047l3.01953,1.19922l0.03125,1.28125c-0.16,0.06 -0.3107,0.12922 -0.4707,0.19922c-0.4,0.19 -0.79945,0.40039 -1.18945,0.65039c-0.15,0.09 -0.28969,0.17953 -0.42969,0.26953l-0.96094,-0.61914zM20,4.49023v2.9707l-0.93945,0.62891c-0.04,-0.02 -0.08086,-0.05008 -0.13086,-0.08008c-0.08,-0.06 -0.16953,-0.11969 -0.26953,-0.17969l-0.18945,-0.10937c-0.33,-0.19 -0.68078,-0.38078 -1.05078,-0.55078l-0.39062,-0.17969l0.03125,-1.31055zM12.07031,8.01563c1.01,0.00625 2.00992,0.13953 2.91992,0.39453c0.23,0.06 0.44992,0.12898 0.66992,0.20898l0.16992,0.06055h0.01953c0.25,0.09 0.4907,0.18102 0.7207,0.29102c0.33,0.16 0.64969,0.32977 0.92969,0.50977l0.13086,0.07031c0.32,0.2 0.54828,0.3593 0.73828,0.5293l0.10156,0.08008l0.09961,0.08008c0.08,0.06 0.16047,0.12899 0.23047,0.20899c0.05,0.03 0.08867,0.07109 0.13867,0.12109c1.33,1.25 2.06055,2.79969 2.06055,4.42969c0,0.49 -0.06945,0.96945 -0.18945,1.43945c-0.48,-1.66 -1.90047,-3.10953 -3.98047,-4.01953l-0.43945,-0.19922l-4.36133,2.28906l-4.08984,-2.41016l-0.44922,0.17969c-2.27,0.91 -3.80078,2.41039 -4.30078,4.15039c-0.13,-0.46 -0.18945,-0.93969 -0.18945,-1.42969c0,-1.47 0.57922,-2.88031 1.69922,-4.07031c0.2,-0.24 0.45023,-0.46898 0.74023,-0.70899c0.02,-0.02 0.04031,-0.04055 0.07031,-0.06055c0.03,-0.02 0.05961,-0.04031 0.09961,-0.07031c0,-0.01 0.01148,-0.00953 0.02148,-0.01953c0.25,-0.2 0.50883,-0.38078 0.79883,-0.55078c0.34,-0.22 0.66,-0.38906 1,-0.53906c0.27,-0.13 0.54102,-0.24008 0.79102,-0.33008l0.17969,-0.06055c0.22,-0.08 0.44945,-0.14898 0.68945,-0.20898c0.95,-0.25 1.97047,-0.37148 2.98047,-0.36523zM12,8.75c-1.10457,0 -2,0.7835 -2,1.75c0,0.9665 0.89543,1.75 2,1.75c1.10457,0 2,-0.7835 2,-1.75c0,-0.9665 -0.89543,-1.75 -2,-1.75zM7.78906,14.33008l4.18164,2.4707l4.47852,-2.35156c1.61,0.82 2.55078,2.02125 2.55078,3.28125c0,1.68 -1.72914,3.17938 -4.11914,3.85938c-0.06,0.01 -0.10992,0.04078 -0.16992,0.05078c-0.05,0.02 -0.11188,0.03883 -0.17188,0.04883c-0.08,0.03 -0.15828,0.05055 -0.23828,0.06055c-0.1,0.03 -0.22008,0.05031 -0.33008,0.07031c-0.17,0.03 -0.35125,0.06008 -0.53125,0.08008c-0.18,0.03 -0.36859,0.05055 -0.55859,0.06055c-0.29,0.03 -0.58086,0.03906 -0.88086,0.03906c-0.3,0 -0.59086,-0.00906 -0.88086,-0.03906c-0.19,-0.01 -0.37859,-0.03055 -0.55859,-0.06055c-0.18,-0.02 -0.35149,-0.05008 -0.52149,-0.08008c-0.1,-0.02 -0.19906,-0.04055 -0.28906,-0.06055c-0.13,-0.02 -0.24914,-0.06984 -0.36914,-0.08984c-2.54,-0.66 -4.38086,-2.19945 -4.38086,-3.93945c0,-1.31 1.05906,-2.58039 2.78906,-3.40039zM8,16c-0.75,0 -1.33008,0.66 -1.33008,1.5c0,0.84 0.58008,1.5 1.33008,1.5c0.75,0 1.33008,-0.66 1.33008,-1.5c0,-0.84 -0.58008,-1.5 -1.33008,-1.5zM16,16c-0.75,0 -1.33008,0.66 -1.33008,1.5c0,0.84 0.58008,1.5 1.33008,1.5c0.75,0 1.33008,-0.66 1.33008,-1.5c0,-0.84 -0.58008,-1.5 -1.33008,-1.5zM12,18.33008c-0.54627,0.00559 -0.98474,0.30388 -0.98474,0.66992c0,0.36604 0.43847,0.66434 0.98474,0.66992c0.54627,-0.00559 0.98474,-0.30388 0.98474,-0.66992c0,-0.36604 -0.43847,-0.66434 -0.98474,-0.66992z"></path></g></g></svg>